<svg xmlns="http://www.w3.org/2000/svg" width="100" height="80.396" xmlns:v="https://vecta.io/nano"><path d="M52.485 79.834c-3.942-1.874-2.155-7.26-2.703-10.829l-.262-26.197-19.076-9.023-9.371 8.874c2.805 2.893 6.669 5.248 7.765 9.332.111 4.122-5.72 6.654-8.497 3.217-4.006-3.324-8.3-6.533-11.375-10.781-2.133-4.326 3.799-6.759 5.959-9.595L52.227.335c4.322-1.004 8.832.491 13.098 1.279 7.295 1.48 14.797 5.167 18.1 12.219 3.266 6.345 2.354 15.042-3.54 19.56-3.592 3.1-7.985 4.976-12.183 7.085 7.228 3.454 14.709 6.452 21.612 10.536 4.003 2.146 2.067 8.903-2.437 8.694-5.684-1.364-10.758-4.534-16.1-6.841l-11.18-5.291c-.211 9.924.025 19.873-.611 29.777-.728 2.426-4.298 3.919-6.5 2.483zm10.646-48.39c4.251-1.896 9.294-3.424 11.879-7.578 1.729-4.626-2.403-9.151-6.446-10.89-2.882-1.324-6.022-1.919-9.135-2.412l.161 22.227c1.198-.399 2.364-.89 3.541-1.347zm-13.443-7.386c-.424-2.407 1.28-10.326-2.327-5.839-2.919 2.695-5.889 5.343-8.682 8.171 3.456 2.018 7.078 3.788 10.756 5.367.318-2.545.201-5.138.252-7.699z"/></svg>