<svg xmlns="http://www.w3.org/2000/svg" width="32" height="32" xmlns:v="https://vecta.io/nano"><path d="M14.942 24.492l-1.14-.089c-4.13-.45-7.301-1.977-10.918-5.257-1.069-.969-2.74-2.608-2.813-2.759-.161-.333-.044-.76.288-1.048.205-.177 1.163-.909 2.524-1.928 4.323-3.234 7.094-4.777 9.871-5.494a12.31 12.31 0 0 1 3.327-.415c3.629.009 6.986 1.448 12.058 5.168 1.705 1.25 3.548 2.67 3.688 2.84a.71.71 0 0 1 .035.883c-.078.115-.687.695-1.757 1.671-3.719 3.396-6.383 5.027-9.595 5.875-1.642.433-3.735.641-5.569.552zm2.603-1.781c1.401-.146 2.353-.348 3.554-.751 2.129-.715 4.108-1.931 6.525-4.006.765-.657 2.114-1.876 2.113-1.91-.001-.025-1.434-1.112-2.462-1.868-4.142-3.046-6.931-4.447-9.645-4.844-2.336-.342-4.671.07-7.177 1.267-1.387.662-3.112 1.718-4.959 3.036-.91.649-3.29 2.44-3.29 2.475s1.114 1.101 1.856 1.772c2.639 2.384 4.841 3.676 7.414 4.351 1.165.306 2.186.458 3.688.549.426.026 1.866-.017 2.383-.071zm-1.9-2.005c-1.615-.224-3-1.216-3.733-2.674a4.87 4.87 0 0 1-.043-4.257c.497-1.043 1.291-1.837 2.334-2.334a4.85 4.85 0 0 1 4.161 0c1.421.677 2.391 1.922 2.723 3.495.092.435.092 1.403 0 1.838-.421 1.994-1.892 3.47-3.866 3.879a6.83 6.83 0 0 1-1.576.052z"/></svg>