<svg xmlns="http://www.w3.org/2000/svg" fill="#ddd" width="49.999" height="39.458" viewBox="0 0 13.229 10.44" xmlns:v="https://vecta.io/nano"><path d="M.899 10.419c-.257-.046-.456-.15-.632-.329-.09-.091-.133-.148-.172-.228C-.003 9.663 0 9.706 0 8.397L.03 7.14c.037-.098.115-.18.219-.227.067-.031.092-.035.185-.029.132.008.2.04.286.136.115.128.11.068.11 1.335l.015 1.145c.008.015.048.045.088.066l.073.039h5.608 5.608l.073-.039c.04-.021.08-.051.088-.066s.015-.401.015-1.145c0-1.266-.005-1.207.11-1.335.086-.096.154-.128.286-.136.093-.006.118-.002.185.029.104.048.183.129.219.227.029.079.03.093.03 1.259l-.026 1.278c-.044.169-.109.28-.241.414-.178.18-.366.278-.633.329-.103.02-.702.022-5.719.021l-5.71-.021zm5.61-2.439c-.054-.025-.203-.181-1.344-1.409l-.471-.507-.628-.674-.537-.577c-.094-.101-.181-.208-.201-.249-.079-.157-.056-.326.06-.456.088-.098.178-.14.3-.14.18 0 .234.034.506.331l.907.977 1.052 1.133.038.042v-.922L6.208.343c.048-.197.178-.318.362-.34.142-.017.301.055.382.172.087.127.084.065.084 1.85v3.026 1.4l.041-.047.208-.225.826-.889.204-.218.532-.572c.479-.517.484-.521.666-.53.142-.007.226.028.323.134.087.095.12.193.106.312s-.054.192-.181.324l-.172.186-.61.661-.816.878-.557.598-.563.604c-.277.298-.328.339-.43.339a.31.31 0 0 1-.106-.026zm3.33-3.404c.017-.022.017-.023-.005-.005-.014.011-.025.022-.025.025 0 .012.012.004.03-.019z"/></svg>