<svg xmlns="http://www.w3.org/2000/svg" width="100" height="100" xmlns:v="https://vecta.io/nano"><path d="M57.722 99.735c-3.577-1.069-4.136-6.132-.892-8.084.9-.541 1.587-.576 14.328-.711 15.018-.16 14.286-.055 16.901-2.414 2.944-2.656 2.746.13 2.746-38.532 0-38.865.212-35.312-2.275-38.061-2.474-2.735-2.415-2.725-17.372-2.884-13.134-.14-13.401-.154-14.379-.762-2.818-1.754-2.818-5.821 0-7.574 1.43-.89 26.511-.973 29.613-.098 6.162 1.737 11.263 6.832 13.003 12.985.809 2.863.809 69.929 0 72.792-1.72 6.084-6.773 11.177-12.86 12.962-1.97.578-27.044.91-28.811.382zm-13.33-22.719c-2.094-.478-3.34-2.073-3.34-4.274 0-2.013.339-2.434 8.597-10.663 7.418-7.393 7.418-7.393-19.563-7.535-26.344-.139-27.003-.156-27.926-.711-2.856-1.719-2.884-5.863-.052-7.626.997-.62.997-.62 27.978-.762s26.981-.142 19.563-7.535c-8.258-8.229-8.597-8.65-8.597-10.663 0-3.45 3.76-5.56 6.67-3.743 2.273 1.419 24.668 24.313 24.871 25.425.474 2.607.788 2.216-12.062 15.084-13.569 13.589-13.57 13.59-16.139 13.003z"/></svg>