<svg xmlns="http://www.w3.org/2000/svg" width="100" height="80.396" xmlns:v="https://vecta.io/nano"><path d="M38.954 79.814c-7.166-5.205-13.248-11.758-19.861-17.632-5.929-5.81-12.46-10.994-18.274-16.906-.883-1.939 1.938-3.436-.819-5.236.043-2.616 2.841-4.081 4.11-6.155C13.723 22.329 24.751 12.044 34.502.612c1.158-1.538 3.033.219 4.133.957.839 3.922-4.009 6.972-5.673 10.369-6.957 9.842-14.267 19.435-21.443 29.11.281 3.366 5.406 5.247 7.381 8.327 7.447 7.975 13.529 17.199 21.597 24.611 2.094 1.341 3.73 3.628 1.468 5.52-.953.547-2.007 1.349-3.012.309zm19.933.37c-2.798-1.27-2.504-4.744.142-5.848 10.936-9.92 18.503-23.097 30.046-32.381L61.299 4.135c-.611-1.406.063-3.089 1.485-3.665 3.114-1.966 4.517 3.178 6.75 4.483l29.971 33.454c1.842 1.958-2.173 3.327-.425 4.792 1.372 3.381-4.213 5.352-5.816 7.896-10.365 9.642-20.829 19.191-31.612 28.362-.765.565-1.764 1.31-2.764.728zM49.151 67.54c-2.504-.498-2.165-3.039-2.137-4.922l-.198-20.347-12.929-6.109-6.287 5.945c1.347 1.909 3.737 3.081 4.859 5.07.866 1.998-.543 4.391-2.779 4.604-3.258-.084-5.091-3.695-7.638-5.339-2.214-1.215-4.198-4.236-2.129-6.464l29.111-26.837c8.121-.184 17.687 2.8 21.337 10.691 1.896 4.473.34 10.066-3.781 12.783-1.882 1.772-5.8 2.931-7.219 4.193 4.843 2.294 9.785 4.479 14.524 6.945 2.47 1.524 1.641 5.137-.94 5.975-2.786.344-5.024-1.732-7.526-2.642l-11.808-5.566c-.235 6.631.126 13.362-.185 19.952-.466 1.717-2.647 2.833-4.275 2.07zm6.952-32.985c2.774-1.348 6.423-2.25 8.012-5.081 1.163-2.956-1.158-6.077-3.804-7.204-1.883-.314-7.516-3.909-6.768-.076.024 4.431-.071 8.865.109 13.292.828-.28 1.637-.614 2.451-.932zm-9.173-4.997c.087-2.809.521-7.303-2.504-3.148-1.805 2.111-7.661 5.046-2.164 6.259 2.366 1.342 5.707 3.515 4.668-.691v-2.421z"/></svg>