<svg xmlns="http://www.w3.org/2000/svg" width="1730.704" height="1730.704" xmlns:v="https://vecta.io/nano"><path d="M345.961 1723.623c-58.314-9.742-106.713-44.907-134.446-97.684-22.275-42.39-22.095-39.649-22.16-336.707-.059-267.387-.059-267.387-29.636-269.306-131.038-8.501-199.388-146.6-124.186-250.913C63.697 729.947 773.138 26.195 794.569 16.065c46.374-21.92 100.325-22.371 143.839-1.203 42.028 20.446 757.077 735.589 777.535 777.638 50.323 103.432-20.163 219.391-138.196 227.35-29.578 1.995-29.578 1.995-29.578 267.916l-3.613 285.979c-12.124 67.307-64.555 124.61-133.288 145.673-35.166 10.777-336.965 9.385-352.401-1.625-20.176-14.39-19.29-4.083-21.12-245.68-2.304-304.154 6.207-290.261-176.646-288.358-168.194 1.75-161.376-10.758-161.395 296.13-.014 240.563 1.51 227.43-27.945 240.801-15.628 7.094-286.312 9.535-325.8 2.938zm255.788-284.468c.071-227.293.859-232.703 41.631-286.072 44.543-58.304 80.578-68.75 232.339-67.35 143.257 1.321 160.363 6.047 210.276 58.09 46.421 48.402 49.779 68.427 49.779 296.797 0 185.295 0 185.295 122.535 185.262 138.693-.037 143.228-.81 167.575-28.539 20.062-22.85 19.053-6.655 20.876-334.808 2.085-375.271-7.672-340.002 94.92-343.098 78.765-2.377 106.822-28.063 87.451-80.063-4.514-12.116-721.115-729.439-735.547-736.287-13.657-6.481-36.06-6.475-49.733.014-22.109 10.491-734.95 728.616-737.56 743.028-4.969 27.429 6.222 55.825 26.522 67.295 4.719 2.667 27.997 4.861 63.243 5.962 102.309 3.195 92.564-32.309 94.648 344.839 1.894 342.757-.343 313.573 25.96 338.674 23.367 22.298 27.345 22.86 162.49 22.942 122.535.074 122.535.074 122.594-186.686z"/></svg>