<svg xmlns="http://www.w3.org/2000/svg" width="32" height="32" xmlns:v="https://vecta.io/nano"><path d="M8.255 27.624a.99.99 0 0 1-.533-.526c-.057-.209-.05-.397.022-.577.081-.202 2.847-4.125 6.509-9.233l7.501-10.777 1.256-1.845c.481-.641 1.49-.311 1.484.485-.002.261-.029.318-.412.872l-1.33 1.959-5.822 8.4-6.098 8.565-1.671 2.371a.86.86 0 0 1-.908.306zm6.687-3.304c-.868-.042-2.47-.233-2.705-.323-.051-.019.031-.154.45-.741l.562-.767c.042-.043.125-.041.54.008 3.316.395 6.673-.169 9.35-1.573 1.467-.769 2.844-1.734 4.485-3.143.765-.657 2.114-1.876 2.113-1.91-.001-.025-1.434-1.112-2.462-1.868-1.86-1.368-3.301-2.306-4.784-3.116l-.685-.374.501-.703.501-.703.492.259c.97.51 2.424 1.42 3.719 2.33 1.592 1.118 4.613 3.407 4.807 3.643a.71.71 0 0 1 .035.883c-.078.115-.687.695-1.757 1.671-3.719 3.396-6.383 5.027-9.595 5.875-1.642.433-3.735.641-5.569.552zm-6.066-1.323c-1.914-.796-3.917-2.141-5.992-4.023-1.069-.969-2.74-2.608-2.813-2.759-.161-.333-.044-.76.288-1.048.205-.177 1.163-.909 2.524-1.928 4.192-3.136 6.951-4.694 9.608-5.425a12.99 12.99 0 0 1 7.167.022c.257.072.481.145.498.162.023.023-.569.899-.99 1.465-.005.007-.263-.046-.573-.118-1.314-.303-2.45-.376-3.725-.241-2.704.287-5.477 1.575-9.374 4.356-.91.649-3.29 2.44-3.29 2.475 0 .075 2.077 1.998 2.867 2.655 1.275 1.06 2.573 1.917 3.809 2.513.416.201 1.099.489 1.347.569.076.024.138.053.138.065 0 .03-1.008 1.443-1.029 1.443-.01 0-.217-.083-.46-.184zm6.782-2.462a6.82 6.82 0 0 1-.56-.112l-.321-.079.081-.115 5.304-7.407c.039-.041.072-.013.193.165.327.481.597 1.137.732 1.778.092.435.092 1.403 0 1.838-.421 1.994-1.892 3.47-3.866 3.879a6.88 6.88 0 0 1-1.562.054zm-3.225-1.849c-.131-.146-.365-.516-.521-.827a4.87 4.87 0 0 1-.043-4.257c.925-1.943 3.007-3.068 5.093-2.753.369.056.88.18.97.235.036.022-.681 1.049-2.689 3.856l-2.737 3.826z"/></svg>