<svg xmlns="http://www.w3.org/2000/svg" width="100" height="100" xmlns:v="https://vecta.io/nano"><path d="M20.805 99.61C10.254 97.751 2.092 89.515.388 79.007c-.517-3.19-.517-54.84 0-58.03A24.89 24.89 0 0 1 16.787 1.424C20.719.051 21.497.002 39.59.001L56.028 0l1.193.595c2.871 1.431 3.612 5.366 1.431 7.598-1.606 1.643-.349 1.535-19.426 1.668l-17.247.12-1.721.626c-4.608 1.677-7.931 5-9.617 9.617l-.629 1.722-.067 27.225.32 28.986c1.279 5.819 5.752 10.32 11.525 11.596 2.557.565 53.901.565 56.458 0 5.716-1.264 10.241-5.791 11.52-11.525.326-1.462.377-3.881.377-17.967V43.982l.594-1.193c.927-1.86 2.082-2.537 4.333-2.537s3.406.677 4.333 2.537l.594 1.193-.001 16.442c-.001 18.097-.05 18.875-1.423 22.808-3.025 8.664-10.499 14.935-19.548 16.403-3.096.502-55.358.481-58.223-.024zm12.436-30.022c-1.749-.619-3.162-2.679-3.166-4.616-.003-1.244 4.468-18.595 5.039-19.558.306-.516 9.989-10.351 21.517-21.854C77.36 2.877 77.612 2.635 79.518 1.693 83.013-.035 86.928-.444 90.033.595c8.629 2.888 12.308 11.731 8.274 19.891-.942 1.906-1.183 2.159-21.863 22.892L54.595 64.9c-1.032.612-18.379 5.049-19.671 5.031-.409-.006-1.166-.16-1.682-.342zM46.249 57.14l3.151-.78 12.51-12.511 12.51-12.511-2.871-2.879-2.871-2.879-12.478 12.479-12.478 12.479-.85 3.424-.977 3.843c-.145.481-.495.535 4.353-.665zm39.358-37.014c2.984-3.013 4.084-4.281 4.301-4.956 1.07-3.333-2.514-6.454-5.58-4.859-.479.249-2.611 2.203-4.739 4.341L75.72 18.54l2.809 2.817c1.545 1.549 2.867 2.817 2.939 2.817s1.934-1.822 4.139-4.049z"/></svg>